<?xml version="1.0" encoding="utf-8"?>
<!-- Generator: Adobe Illustrator 16.0.3, SVG Export Plug-In . SVG Version: 6.00 Build 0)  -->
<!DOCTYPE svg PUBLIC "-//W3C//DTD SVG 1.1//EN" "http://www.w3.org/Graphics/SVG/1.1/DTD/svg11.dtd">
<svg version="1.1"
	 id="svg2" xmlns:dc="http://purl.org/dc/elements/1.1/" xmlns:cc="http://creativecommons.org/ns#" xmlns:rdf="http://www.w3.org/1999/02/22-rdf-syntax-ns#" xmlns:svg="http://www.w3.org/2000/svg"
	 xmlns="http://www.w3.org/2000/svg" xmlns:xlink="http://www.w3.org/1999/xlink" x="0px" y="0px" width="295.963px"
	 height="146.463px" viewBox="0 0 295.963 146.463" enable-background="new 0 0 295.963 146.463" xml:space="preserve">
<g id="g10" transform="matrix(1.25,0,0,-1.25,0,146.4625)">
	<g id="g12" transform="scale(0.1,0.1)">
		<g id="g14">
			<g>
				<defs>
					<rect id="SVGID_1_" x="1035.885" y="512.633" width="295.968" height="146.467"/>
				</defs>
				<clipPath id="SVGID_2_">
					<use xlink:href="#SVGID_1_"  overflow="visible"/>
				</clipPath>
				<g id="g16" clip-path="url(#SVGID_2_)">
					<g id="g22" transform="scale(10,10)">
						<g enable-background="new    ">
							<path fill="#FFFFFF" d="M44.274,92.344H25.36V79.301h18.246v-7.699H25.36v-25.84h-8.191v54.281h27.105V92.344z"/>
						</g>
						<g enable-background="new    ">
							<path fill="#FFFFFF" d="M51.13,73.148c0,7.641,2.8,14.203,8.402,19.688c5.578,5.484,12.281,8.227,20.109,8.227
								c7.734,0,14.367-2.766,19.898-8.297c5.555-5.532,8.332-12.176,8.332-19.934c0-7.805-2.789-14.426-8.367-19.863
								c-5.602-5.462-12.363-8.191-20.285-8.191c-7.008,0-13.301,2.426-18.879,7.277C54.201,57.421,51.13,64.453,51.13,73.148z
								 M59.392,73.06c0-5.995,2.016-10.924,6.047-14.788c4.008-3.864,8.636-5.796,13.887-5.796c5.695,0,10.5,1.967,14.414,5.901
								c3.914,3.98,5.871,8.828,5.871,14.542c0,5.784-1.934,10.631-5.801,14.542c-3.844,3.934-8.602,5.901-14.273,5.901
								c-5.648,0-10.418-1.967-14.309-5.901C61.337,83.574,59.392,78.774,59.392,73.06z"/>
						</g>
						<g enable-background="new    ">
							<path fill="#FFFFFF" d="M136.559,68.894l16.805-23.133h-10.02L127.84,67.98h-1.477V45.762h-8.191v54.281h9.598
								c7.172,0,12.352-1.348,15.539-4.043c3.516-3,5.273-6.961,5.273-11.883c0-3.844-1.102-7.149-3.305-9.914
								C143.075,71.437,140.168,69.668,136.559,68.894z M126.364,75.117h2.602c7.757,0,11.637,2.965,11.637,8.895
								c0,5.555-3.773,8.332-11.32,8.332h-2.918V75.117z"/>
						</g>
						<g enable-background="new    ">
							<path fill="#FFFFFF" d="M159.622,45.762l11.426,58.359l18.633-42.188l19.301,42.188l10.266-58.359h-8.402l-5.238,32.766
								L189.54,43.266l-15.609,35.297l-5.836-32.801H159.622z"/>
						</g>
					</g>
					<path id="path28" fill="none" stroke="#FFFFFF" stroke-width="100" stroke-miterlimit="10" d="M49.998,344.311H2317.74v777.422
						H49.998V344.311L49.998,344.311z"/>
				</g>
			</g>
		</g>
	</g>
</g>
</svg>
