<?xml version="1.0" encoding="utf-8"?>
<!-- Generator: Adobe Illustrator 16.0.3, SVG Export Plug-In . SVG Version: 6.00 Build 0)  -->
<!DOCTYPE svg PUBLIC "-//W3C//DTD SVG 1.1//EN" "http://www.w3.org/Graphics/SVG/1.1/DTD/svg11.dtd">
<svg version="1.1" xmlns="http://www.w3.org/2000/svg" xmlns:xlink="http://www.w3.org/1999/xlink" x="0px" y="0px"
	 width="217.123px" height="77.25px" viewBox="0 0 217.123 77.25" enable-background="new 0 0 217.123 77.25" xml:space="preserve">
<g id="Layer_3" display="none">
	<rect y="-0.125" display="inline" stroke="#000000" stroke-width="7" stroke-miterlimit="10" width="217.125" height="77.375"/>
</g>
<g id="Layer_1_copy_3" display="none">
	<g display="inline">
		<path fill="#545860" d="M36.907,17.184H18.259v16.128h18.072v5.615H18.259v26.928h-6.048V11.568h24.696V17.184z"/>
		<path fill="#545860" d="M52.206,18.876c5.544-5.496,12.204-8.244,19.98-8.244c7.776,0,14.436,2.749,19.98,8.244
			c5.544,5.497,8.316,12.132,8.316,19.908S97.71,53.173,92.167,58.62c-5.544,5.448-12.204,8.172-19.98,8.172
			c-7.776,0-14.436-2.724-19.98-8.172c-5.544-5.447-8.316-12.06-8.316-19.836S46.662,24.373,52.206,18.876z M87.954,22.836
			c-4.32-4.392-9.576-6.588-15.768-6.588c-6.192,0-11.448,2.196-15.768,6.588c-4.32,4.392-6.48,9.684-6.48,15.876
			c0,6.146,2.171,11.425,6.516,15.84c4.344,4.417,9.587,6.624,15.732,6.624c6.144,0,11.387-2.207,15.732-6.624
			c4.343-4.415,6.516-9.694,6.516-15.84C94.434,32.52,92.274,27.228,87.954,22.836z"/>
		<path fill="#545860" d="M114.739,42.023v23.832h-6.048V11.568h7.848c2.783,0,5.28,0.216,7.489,0.648
			c2.207,0.432,4.295,1.177,6.264,2.232c1.967,1.057,3.479,2.604,4.535,4.644c1.056,2.041,1.584,4.525,1.584,7.452
			c0,4.176-1.224,7.632-3.672,10.368c-2.447,2.736-5.76,4.272-9.936,4.607l17.279,24.336h-7.415l-16.416-23.832H114.739z
			 M114.739,17.184v19.511h1.872c1.919,0,3.611-0.119,5.076-0.359c1.464-0.24,2.903-0.684,4.32-1.332
			c1.415-0.648,2.495-1.644,3.239-2.988c0.744-1.343,1.117-3.023,1.117-5.04c0-1.728-0.266-3.204-0.793-4.428
			c-0.528-1.224-1.176-2.184-1.943-2.88c-0.769-0.695-1.801-1.235-3.096-1.62c-1.297-0.383-2.533-0.623-3.708-0.72
			c-1.177-0.096-2.604-0.144-4.284-0.144H114.739z"/>
		<path fill="#545860" d="M143.754,65.855L154.77,8.472l19.729,45.576l19.801-45.576l11.016,57.383h-6.192l-6.983-36.72h-0.145
			l-17.496,38.952l-17.424-38.952h-0.145l-6.983,36.72H143.754z"/>
	</g>
	
		<rect x="3.5" y="3.5" display="inline" fill="none" stroke="#545860" stroke-width="7" stroke-miterlimit="10" width="210.123" height="70.125"/>
</g>
<g id="Layer_1_copy_4">
	<g>
		<path fill="#FFFFFF" d="M36.907,17.184H18.259v16.128h18.072v5.615H18.259v26.928h-6.048V11.568h24.696V17.184z"/>
		<path fill="#FFFFFF" d="M52.206,18.876c5.544-5.496,12.204-8.244,19.98-8.244c7.776,0,14.436,2.749,19.98,8.244
			c5.544,5.497,8.316,12.132,8.316,19.908S97.71,53.173,92.167,58.62c-5.544,5.448-12.204,8.172-19.98,8.172
			c-7.776,0-14.436-2.724-19.98-8.172c-5.544-5.447-8.316-12.06-8.316-19.836S46.662,24.373,52.206,18.876z M87.954,22.836
			c-4.32-4.392-9.576-6.588-15.768-6.588c-6.192,0-11.448,2.196-15.768,6.588c-4.32,4.392-6.48,9.684-6.48,15.876
			c0,6.146,2.171,11.425,6.516,15.84c4.344,4.417,9.587,6.624,15.732,6.624c6.144,0,11.387-2.207,15.732-6.624
			c4.343-4.415,6.516-9.694,6.516-15.84C94.434,32.52,92.274,27.228,87.954,22.836z"/>
		<path fill="#FFFFFF" d="M114.739,42.023v23.832h-6.048V11.568h7.848c2.783,0,5.28,0.216,7.489,0.648
			c2.207,0.432,4.295,1.177,6.264,2.232c1.967,1.057,3.479,2.604,4.535,4.644c1.056,2.041,1.584,4.525,1.584,7.452
			c0,4.176-1.224,7.632-3.672,10.368c-2.447,2.736-5.76,4.272-9.936,4.607l17.279,24.336h-7.415l-16.416-23.832H114.739z
			 M114.739,17.184v19.511h1.872c1.919,0,3.611-0.119,5.076-0.359c1.464-0.24,2.903-0.684,4.32-1.332
			c1.415-0.648,2.495-1.644,3.239-2.988c0.744-1.343,1.117-3.023,1.117-5.04c0-1.728-0.266-3.204-0.793-4.428
			c-0.528-1.224-1.176-2.184-1.943-2.88c-0.769-0.695-1.801-1.235-3.096-1.62c-1.297-0.383-2.533-0.623-3.708-0.72
			c-1.177-0.096-2.604-0.144-4.284-0.144H114.739z"/>
		<path fill="#FFFFFF" d="M143.754,65.855L154.77,8.472l19.729,45.576l19.801-45.576l11.016,57.383h-6.192l-6.983-36.72h-0.145
			l-17.496,38.952l-17.424-38.952h-0.145l-6.983,36.72H143.754z"/>
	</g>
	<rect x="3.5" y="3.5" fill="none" stroke="#FFFFFF" stroke-width="7" stroke-miterlimit="10" width="210.123" height="70.125"/>
	<g>
	</g>
	<g>
	</g>
	<g>
	</g>
	<g>
	</g>
	<g>
	</g>
	<g>
	</g>
</g>
</svg>
