<?xml version="1.0" encoding="utf-8"?>
<!-- Generator: Adobe Illustrator 16.0.3, SVG Export Plug-In . SVG Version: 6.00 Build 0)  -->
<!DOCTYPE svg PUBLIC "-//W3C//DTD SVG 1.1//EN" "http://www.w3.org/Graphics/SVG/1.1/DTD/svg11.dtd">
<svg version="1.1" xmlns="http://www.w3.org/2000/svg" xmlns:xlink="http://www.w3.org/1999/xlink" x="0px" y="0px" width="1030px"
	 height="151px" viewBox="0 0 1030 151" enable-background="new 0 0 1030 151" xml:space="preserve">
<g id="Layer_1">
	<path fill="none" stroke="#4D4D4D" stroke-width="7.5581" stroke-miterlimit="10" d="M700.043,95.852
		c0,14.089-11.419,25.51-25.51,25.51c-14.086,0-25.51-11.421-25.51-25.51c0-14.093,25.51-50.015,25.51-50.015
		S700.043,81.759,700.043,95.852z"/>
	<g>
		<path fill="#4D4D4D" d="M1000.914,102.444c0,16.135-13.081,29.213-29.213,29.213c-16.135,0-29.214-13.078-29.214-29.213
			s13.079-29.214,29.214-29.214C987.833,73.23,1000.914,86.31,1000.914,102.444"/>
		<rect x="956.808" y="68.161" fill="#4D4D4D" width="29.122" height="19.93"/>
		<path fill="#4D4D4D" d="M976.191,67.78h-9.502V30.425h9.502V67.78z M986.072,20.542h-29.265v57.121h29.265V20.542z"/>
	</g>
	<g>
		<path fill="none" stroke="#4D4D4D" stroke-width="8.0832" stroke-miterlimit="10" d="M390.107,72.066
			c-7.248,0-13.121-5.876-13.121-13.121c0-7.243,5.873-13.114,13.121-13.114c7.244,0,13.113,5.871,13.113,13.114"/>
		<path fill="none" stroke="#4D4D4D" stroke-width="8.0832" stroke-miterlimit="10" d="M345.665,85.695
			c-10.325,0-18.532-7.068-18.532-17.392c0-10.322,8.364-18.691,18.688-18.691c10.322,0,18.693,8.369,18.693,18.691"/>
		<path fill="none" stroke="#4D4D4D" stroke-width="8.0832" stroke-miterlimit="10" d="M361.831,99.166
			c-7.247,0-14.124,6.582-14.124,13.827c0,7.246,5.876,13.116,13.117,13.116c7.247,0,13.117-5.87,13.117-13.116"/>
		<rect x="345.537" y="81.664" fill="#4D4D4D" width="81.276" height="8.072"/>
		<rect x="361.792" y="95.13" fill="#4D4D4D" width="65.142" height="8.073"/>
		<rect x="389.891" y="68.027" fill="#4D4D4D" width="36.625" height="8.072"/>
	</g>
	<g>
		<rect x="27.752" y="118.306" fill="#4D4D4D" width="9.609" height="9.812"/>
		<rect x="27.752" y="106.312" fill="#4D4D4D" width="9.609" height="9.81"/>
		<rect x="27.752" y="94.312" fill="#4D4D4D" width="9.609" height="9.814"/>
		<rect x="27.752" y="82.319" fill="#4D4D4D" width="9.609" height="9.812"/>
		<rect x="27.752" y="70.32" fill="#4D4D4D" width="9.609" height="9.815"/>
		<rect x="27.752" y="58.325" fill="#4D4D4D" width="9.609" height="9.812"/>
		<rect x="27.752" y="46.334" fill="#4D4D4D" width="9.609" height="9.812"/>
		<rect x="27.752" y="34.338" fill="#4D4D4D" width="9.609" height="9.815"/>
		<rect x="39.498" y="118.306" fill="#4D4D4D" width="9.609" height="9.812"/>
		<rect x="39.498" y="106.312" fill="#4D4D4D" width="9.609" height="9.81"/>
		<rect x="39.498" y="94.312" fill="#4D4D4D" width="9.609" height="9.814"/>
		<rect x="39.498" y="82.319" fill="#4D4D4D" width="9.609" height="9.812"/>
		<rect x="39.498" y="70.32" fill="#4D4D4D" width="9.609" height="9.815"/>
		<rect x="51.243" y="118.306" fill="#4D4D4D" width="9.606" height="9.812"/>
		<rect x="51.243" y="106.312" fill="#4D4D4D" width="9.606" height="9.81"/>
		<rect x="51.243" y="94.312" fill="#4D4D4D" width="9.606" height="9.814"/>
		<rect x="62.981" y="118.306" fill="#4D4D4D" width="9.612" height="9.812"/>
		<rect x="62.981" y="106.312" fill="#4D4D4D" width="9.612" height="9.81"/>
		<rect x="62.981" y="94.312" fill="#4D4D4D" width="9.612" height="9.814"/>
		<rect x="62.981" y="82.319" fill="#4D4D4D" width="9.612" height="9.812"/>
		<rect x="62.981" y="70.32" fill="#4D4D4D" width="9.612" height="9.815"/>
		<rect x="62.981" y="58.325" fill="#4D4D4D" width="9.612" height="9.812"/>
		<rect x="74.727" y="118.306" fill="#4D4D4D" width="9.609" height="9.812"/>
		<rect x="74.727" y="106.312" fill="#4D4D4D" width="9.609" height="9.81"/>
		<rect x="86.477" y="118.306" fill="#4D4D4D" width="9.604" height="9.812"/>
		<rect x="86.477" y="106.312" fill="#4D4D4D" width="9.604" height="9.81"/>
		<rect x="86.477" y="94.312" fill="#4D4D4D" width="9.604" height="9.814"/>
		<rect x="86.477" y="82.319" fill="#4D4D4D" width="9.604" height="9.812"/>
		<rect x="86.477" y="70.32" fill="#4D4D4D" width="9.604" height="9.815"/>
		<rect x="86.477" y="58.325" fill="#4D4D4D" width="9.604" height="9.812"/>
		<rect x="86.477" y="46.334" fill="#4D4D4D" width="9.604" height="9.812"/>
		<rect x="98.219" y="118.306" fill="#4D4D4D" width="9.606" height="9.812"/>
		<rect x="109.959" y="118.306" fill="#4D4D4D" width="9.611" height="9.812"/>
		<rect x="109.959" y="106.312" fill="#4D4D4D" width="9.611" height="9.81"/>
		<rect x="109.959" y="94.312" fill="#4D4D4D" width="9.611" height="9.814"/>
		<rect x="121.706" y="118.306" fill="#4D4D4D" width="9.609" height="9.812"/>
		<rect x="121.706" y="106.312" fill="#4D4D4D" width="9.609" height="9.81"/>
		<rect x="121.706" y="94.312" fill="#4D4D4D" width="9.609" height="9.814"/>
		<rect x="121.706" y="82.319" fill="#4D4D4D" width="9.609" height="9.812"/>
	</g>
</g>
<g id="Layer_2" display="none">
	<g display="inline">
		<path fill="#4D4D4D" d="M82.647,112.845H52.908V43.648h29.739V112.845z M91.517,34.779H44.038v86.933h47.479V34.779z"/>
		<rect x="58.813" y="22.276" fill="#4D4D4D" width="17.934" height="18.3"/>
		<rect x="58.035" y="67.488" fill="#4D4D4D" width="19.021" height="40.519"/>
	</g>
	<g display="inline">
		<g>
			<defs>
				<polygon id="SVGID_1_" points="784.922,76.467 827.243,118.341 869.566,76.467 827.243,34.587 				"/>
			</defs>
			<clipPath id="SVGID_2_">
				<use xlink:href="#SVGID_1_"  overflow="visible"/>
			</clipPath>
			<path clip-path="url(#SVGID_2_)" fill="none" stroke="#4D4D4D" stroke-width="8.6412" stroke-miterlimit="10" d="M801.586,76.467
				c0,8.988-7.36,16.277-16.45,16.277c-9.087,0-16.45-7.289-16.45-16.277c0-8.991,7.363-16.281,16.45-16.281
				C794.226,60.186,801.586,67.476,801.586,76.467z"/>
			<path clip-path="url(#SVGID_2_)" fill="none" stroke="#4D4D4D" stroke-width="8.6412" stroke-miterlimit="10" d="M816.105,76.467
				c0,16.926-13.868,30.645-30.97,30.645c-17.105,0-30.969-13.719-30.969-30.645c0-16.928,13.863-30.649,30.969-30.649
				C802.237,45.817,816.105,59.539,816.105,76.467z"/>
			<path clip-path="url(#SVGID_2_)" fill="none" stroke="#4D4D4D" stroke-width="8.6412" stroke-miterlimit="10" d="M830.56,76.467
				c0,24.821-20.339,44.939-45.424,44.939c-25.081,0-45.419-20.118-45.419-44.939c0-24.824,20.338-44.948,45.419-44.948
				C810.221,31.519,830.56,51.643,830.56,76.467z"/>
		</g>
		<path fill="none" stroke="#4D4D4D" stroke-width="8.6412" stroke-miterlimit="10" d="M760.154,62.429
			c-1.292,0.924-3.646,1.695-5.236,1.695h-10.459c-1.587,0-2.976,1.26-2.976,2.833v19.301c0,1.578,1.389,3.653,2.976,3.653h10.459
			c1.59,0,3.956,0.348,5.256,1.26l22.622,15.79c1.304,0.908,2.118,0.164,2.118-1.41V47.2c0-1.572-0.807-2.096-2.093-1.172
			L760.154,62.429z"/>
	</g>
	<g display="inline">
		<path fill="#4D4D4D" d="M257.266,92.384c6.407,0,11.605,5.193,11.605,11.601c0,6.411-5.199,11.601-11.605,11.601
			c-6.406,0-11.599-5.189-11.599-11.601C245.667,97.577,250.86,92.384,257.266,92.384z"/>
		<path fill="#4D4D4D" d="M284.987,76.031c-0.166-0.173-0.354-0.332-0.531-0.496l-0.518-0.491c-0.089-0.09-0.184-0.158-0.293-0.241
			c-14.998-13.631-37.956-13.092-52.271,1.227l-1.68,1.682l-2.321,2.327c-2.831,2.831-2.816,7.446,0.015,10.28
			c2.842,2.844,7.456,2.847,10.282,0.019l4.009-4.008c9.104-9.1,23.913-9.1,33.009,0l2.896,2.798
			c2.803,2.803,7.372,2.795,10.188-0.029c1.364-1.355,2.117-3.163,2.119-5.093c0.008-1.917-0.738-3.729-2.1-5.081L284.987,76.031z"
			/>
		<path fill="#4D4D4D" d="M304.75,61.694l-2.41-2.408c-0.009-0.012-0.015-0.026-0.032-0.032l-1.901-1.914
			c-0.336-0.326-0.699-0.616-1.083-0.861c-24.448-21.467-61.634-20.802-85.301,1.966c-0.116,0.103-0.242,0.178-0.36,0.29
			l-4.349,4.357c-2.584,2.575-2.57,6.766,0.027,9.363c2.59,2.596,6.787,2.615,9.367,0.023l4.353-4.342
			c0.027-0.041,0.05-0.074,0.083-0.097c19.139-18.491,49.501-18.604,68.794-0.377l3.428,3.427c2.574,2.576,6.782,2.566,9.367-0.021
			C307.318,68.47,307.329,64.274,304.75,61.694z"/>
	</g>
	<path display="inline" fill="#4D4D4D" d="M596.93,37.655c-15.109,0-27.354,12.25-27.354,27.355
		c0,13.678,13.676,27.564,13.676,41.033h27.356c0-13.895,13.675-27.355,13.675-41.033C624.282,49.905,612.038,37.655,596.93,37.655z
		 M611.374,82.303c-2.726,5.416-5.512,10.972-6.826,16.903h-15.272c-1.315-5.752-4.041-11.222-6.704-16.564
		c-3.168-6.366-6.157-12.376-6.157-17.631c0-11.313,9.199-20.516,20.516-20.516c11.313,0,20.514,9.202,20.514,20.516
		C617.443,70.207,614.492,76.084,611.374,82.303z M610.607,123.136c0,1.891-1.529,3.421-3.418,3.421h-0.631
		c-1.406,3.98-5.169,6.841-9.629,6.841s-8.223-2.86-9.631-6.841h-0.629c-1.886,0-3.419-1.53-3.419-3.421
		c0-1.89,1.533-3.418,3.419-3.418h20.52C609.078,119.718,610.607,121.246,610.607,123.136z M610.607,112.882
		c0,1.887-1.529,3.422-3.418,3.422h-20.52c-1.886,0-3.419-1.535-3.419-3.422c0-1.889,1.533-3.425,3.419-3.425h20.52
		C609.078,109.457,610.607,110.993,610.607,112.882z M563.104,41.528l6.153,3.56c-1.332,1.851-2.488,3.814-3.44,5.915l-6.136-3.544
		L563.104,41.528z M596.93,30.816c-1.173,0-2.278,0.229-3.423,0.351v-7.187h6.843v7.187
		C599.205,31.045,598.104,30.816,596.93,30.816z M577.01,37.342l-3.561-6.158l5.929-3.418l3.542,6.138
		C580.818,34.854,578.854,36.009,577.01,37.342z M628.044,51.003c-0.95-2.101-2.112-4.064-3.445-5.915l6.155-3.555l3.422,5.926
		L628.044,51.003z M616.847,37.335c-1.837-1.326-3.805-2.481-5.9-3.432l3.538-6.138l5.92,3.418L616.847,37.335z M563.094,68.429
		h-7.195v-6.835h7.184c-0.121,1.143-0.347,2.24-0.347,3.417C562.735,66.176,562.961,67.295,563.094,68.429z M637.958,61.594v6.835
		h-7.194c0.132-1.134,0.358-2.253,0.358-3.418c0-1.177-0.227-2.274-0.347-3.417H637.958z M627.958,78.984l6.218,3.579l-3.422,5.923
		l-5.594-3.233C626.165,83.19,627.104,81.104,627.958,78.984z M565.866,78.997c0.851,2.122,1.788,4.219,2.787,6.291l-5.549,3.198
		l-3.423-5.923L565.866,78.997z"/>
</g>
</svg>
