<?xml version="1.0" encoding="utf-8"?>
<!-- Generator: Adobe Illustrator 16.0.3, SVG Export Plug-In . SVG Version: 6.00 Build 0)  -->
<!DOCTYPE svg PUBLIC "-//W3C//DTD SVG 1.1//EN" "http://www.w3.org/Graphics/SVG/1.1/DTD/svg11.dtd">
<svg version="1.1" xmlns="http://www.w3.org/2000/svg" xmlns:xlink="http://www.w3.org/1999/xlink" x="0px" y="0px"
	 width="236.774px" height="87.581px" viewBox="0 0 236.774 87.581" enable-background="new 0 0 236.774 87.581"
	 xml:space="preserve">
<g id="Layer_1">
	<g>
		<path d="M44.275,24.831H25.361v13.042h18.246v7.699H25.361v25.84H17.17V17.131h27.105V24.831z"/>
		<path d="M51.131,44.025c0-7.641,2.8-14.203,8.402-19.687c5.578-5.484,12.281-8.227,20.109-8.227
			c7.734,0,14.367,2.766,19.898,8.297c5.555,5.532,8.332,12.176,8.332,19.933c0,7.805-2.79,14.427-8.367,19.863
			c-5.602,5.462-12.363,8.191-20.285,8.191c-7.008,0-13.301-2.426-18.879-7.277C54.201,59.753,51.131,52.722,51.131,44.025z
			 M59.393,44.113c0,5.996,2.016,10.925,6.047,14.789c4.008,3.863,8.636,5.795,13.887,5.795c5.695,0,10.5-1.967,14.414-5.9
			c3.914-3.98,5.871-8.828,5.871-14.543c0-5.783-1.934-10.631-5.801-14.542c-3.844-3.934-8.602-5.901-14.273-5.901
			c-5.648,0-10.418,1.967-14.309,5.901C61.338,33.6,59.393,38.4,59.393,44.113z"/>
		<path d="M136.56,48.279l16.805,23.133h-10.02l-15.504-22.219h-1.476v22.219h-8.191V17.131h9.597
			c7.172,0,12.352,1.348,15.539,4.043c3.516,3,5.273,6.961,5.273,11.882c0,3.845-1.102,7.149-3.305,9.914
			C143.076,45.736,140.169,47.506,136.56,48.279z M126.365,42.057h2.601c7.758,0,11.637-2.965,11.637-8.895
			c0-5.554-3.773-8.332-11.32-8.332h-2.917V42.057z"/>
		<path d="M159.623,71.412l11.426-58.359l18.633,42.187l19.301-42.187l10.266,58.359h-8.402l-5.238-32.766l-16.066,35.262
			l-15.609-35.297l-5.836,32.801H159.623z"/>
	</g>
	<g>
		<rect x="199.194" y="90.807" fill="none" width="2.258" height="0"/>
	</g>
	<g>
	</g>
	<rect x="5" y="5" fill="none" stroke="#000000" stroke-width="10" stroke-miterlimit="10" width="226.774" height="77.742"/>
</g>
<g id="Layer_1_copy_2">
	<g>
		<path fill="#545860" d="M44.275,24.831H25.361v13.042h18.246v7.699H25.361v25.84H17.17V17.131h27.105V24.831z"/>
		<path fill="#545860" d="M51.131,44.025c0-7.641,2.8-14.203,8.402-19.687c5.578-5.484,12.281-8.227,20.109-8.227
			c7.734,0,14.367,2.766,19.898,8.297c5.555,5.532,8.332,12.176,8.332,19.933c0,7.805-2.79,14.427-8.367,19.863
			c-5.602,5.462-12.363,8.191-20.285,8.191c-7.008,0-13.301-2.426-18.879-7.277C54.201,59.753,51.131,52.722,51.131,44.025z
			 M59.393,44.113c0,5.996,2.016,10.925,6.047,14.789c4.008,3.863,8.636,5.795,13.887,5.795c5.695,0,10.5-1.967,14.414-5.9
			c3.914-3.98,5.871-8.828,5.871-14.543c0-5.783-1.934-10.631-5.801-14.542c-3.844-3.934-8.602-5.901-14.273-5.901
			c-5.648,0-10.418,1.967-14.309,5.901C61.338,33.6,59.393,38.4,59.393,44.113z"/>
		<path fill="#545860" d="M136.56,48.279l16.805,23.133h-10.02l-15.504-22.219h-1.476v22.219h-8.191V17.131h9.597
			c7.172,0,12.352,1.348,15.539,4.043c3.516,3,5.273,6.961,5.273,11.882c0,3.845-1.102,7.149-3.305,9.914
			C143.076,45.736,140.169,47.506,136.56,48.279z M126.365,42.057h2.601c7.758,0,11.637-2.965,11.637-8.895
			c0-5.554-3.773-8.332-11.32-8.332h-2.917V42.057z"/>
		<path fill="#545860" d="M159.623,71.412l11.426-58.359l18.633,42.187l19.301-42.187l10.266,58.359h-8.402l-5.238-32.766
			l-16.066,35.262l-15.609-35.297l-5.836,32.801H159.623z"/>
	</g>
	<g>
		<rect x="199.194" y="90.807" fill="none" width="2.258" height="0"/>
	</g>
	<g>
	</g>
	<rect x="5" y="5" fill="none" stroke="#545860" stroke-width="10" stroke-miterlimit="10" width="226.774" height="77.742"/>
</g>
<g id="Layer_1_copy" display="none">
	<g display="inline">
		<path fill="#FFFFFF" d="M44.275,24.831H25.361v13.042h18.246v7.699H25.361v25.84H17.17V17.131h27.105V24.831z"/>
		<path fill="#FFFFFF" d="M51.131,44.025c0-7.641,2.8-14.203,8.402-19.687c5.578-5.484,12.281-8.227,20.109-8.227
			c7.734,0,14.367,2.766,19.898,8.297c5.555,5.532,8.332,12.176,8.332,19.933c0,7.805-2.79,14.427-8.367,19.863
			c-5.602,5.462-12.363,8.191-20.285,8.191c-7.008,0-13.301-2.426-18.879-7.277C54.201,59.753,51.131,52.722,51.131,44.025z
			 M59.393,44.113c0,5.996,2.016,10.925,6.047,14.789c4.008,3.863,8.636,5.795,13.887,5.795c5.695,0,10.5-1.967,14.414-5.9
			c3.914-3.98,5.871-8.828,5.871-14.543c0-5.783-1.934-10.631-5.801-14.542c-3.844-3.934-8.602-5.901-14.273-5.901
			c-5.648,0-10.418,1.967-14.309,5.901C61.338,33.6,59.393,38.4,59.393,44.113z"/>
		<path fill="#FFFFFF" d="M136.56,48.279l16.805,23.133h-10.02l-15.504-22.219h-1.476v22.219h-8.191V17.131h9.597
			c7.172,0,12.352,1.348,15.539,4.043c3.516,3,5.273,6.961,5.273,11.882c0,3.845-1.102,7.149-3.305,9.914
			C143.076,45.736,140.169,47.506,136.56,48.279z M126.365,42.057h2.601c7.758,0,11.637-2.965,11.637-8.895
			c0-5.554-3.773-8.332-11.32-8.332h-2.917V42.057z"/>
		<path fill="#FFFFFF" d="M159.623,71.412l11.426-58.359l18.633,42.187l19.301-42.187l10.266,58.359h-8.402l-5.238-32.766
			l-16.066,35.262l-15.609-35.297l-5.836,32.801H159.623z"/>
	</g>
	<g display="inline">
		<rect x="199.194" y="90.807" fill="none" width="2.258" height="0"/>
	</g>
	<g display="inline">
	</g>
	
		<rect x="5" y="5" display="inline" fill="none" stroke="#FFFFFF" stroke-width="10" stroke-miterlimit="10" width="226.774" height="77.742"/>
</g>
</svg>
