<?xml version="1.0" encoding="utf-8"?>
<!-- Generator: Adobe Illustrator 16.0.3, SVG Export Plug-In . SVG Version: 6.00 Build 0)  -->
<!DOCTYPE svg PUBLIC "-//W3C//DTD SVG 1.1//EN" "http://www.w3.org/Graphics/SVG/1.1/DTD/svg11.dtd">
<svg version="1.1" id="Layer_1" xmlns="http://www.w3.org/2000/svg" xmlns:xlink="http://www.w3.org/1999/xlink" x="0px" y="0px"
	 width="420.943px" height="297.641px" viewBox="0 0 420.943 297.641" enable-background="new 0 0 420.943 297.641"
	 xml:space="preserve">
<rect x="0" fill="#373B3D" width="420.943" height="297.641"/>
<path fill="#FFFFFF" d="M116.242,191.893h-9.679v-64.689h9.679v4.559c3.812-3.813,8.143-5.72,12.988-5.72
	c5.765,0,10.51,2.122,14.237,6.365c3.785,4.216,5.678,9.535,5.678,15.958c0,6.279-1.878,11.513-5.635,15.699
	c-3.728,4.158-8.43,6.236-14.108,6.236c-4.902,0-9.289-1.964-13.16-5.893V191.893z M139.252,148.408c0-4.014-1.09-7.283-3.27-9.807
	c-2.208-2.552-4.988-3.828-8.344-3.828c-3.556,0-6.438,1.233-8.646,3.699c-2.208,2.466-3.312,5.706-3.312,9.721
	c0,3.928,1.104,7.169,3.312,9.721c2.179,2.494,5.047,3.742,8.603,3.742c3.355,0,6.122-1.262,8.301-3.785
	C138.134,155.348,139.252,152.193,139.252,148.408"/>
<path fill="#FFFFFF" d="M156.611,147.849c0-6.05,2.165-11.198,6.495-15.441c4.329-4.244,9.605-6.366,15.827-6.366
	c6.252,0,11.557,2.136,15.915,6.409c4.302,4.272,6.452,9.52,6.452,15.742c0,6.28-2.166,11.542-6.495,15.786
	c-4.358,4.215-9.706,6.322-16.044,6.322c-6.278,0-11.542-2.15-15.785-6.451C158.733,159.605,156.611,154.271,156.611,147.849
	 M166.503,148.021c0,4.186,1.118,7.499,3.355,9.936c2.294,2.466,5.318,3.699,9.074,3.699c3.786,0,6.812-1.219,9.076-3.656
	c2.266-2.438,3.398-5.691,3.398-9.764c0-4.072-1.133-7.326-3.398-9.764c-2.295-2.466-5.318-3.699-9.076-3.699
	c-3.698,0-6.694,1.233-8.988,3.699C167.65,140.938,166.503,144.121,166.503,148.021"/>
<path fill="#FFFFFF" d="M207.873,112.23c0-1.692,0.616-3.154,1.85-4.387c1.232-1.233,2.709-1.85,4.43-1.85
	c1.748,0,3.24,0.617,4.474,1.85c1.232,1.204,1.85,2.681,1.85,4.43s-0.617,3.24-1.85,4.473c-1.204,1.233-2.683,1.85-4.431,1.85
	c-1.749,0-3.24-0.617-4.473-1.85C208.489,115.513,207.873,114.008,207.873,112.23 M219.012,169.098h-9.678v-41.895h9.678V169.098z"
	/>
<path fill="#FFFFFF" d="M231.711,127.203h9.722v3.871c3.383-3.355,7.196-5.032,11.44-5.032c4.875,0,8.674,1.534,11.398,4.602
	c2.351,2.609,3.526,6.868,3.526,12.775v25.679h-9.721v-23.37c0-4.124-0.573-6.974-1.72-8.549c-1.118-1.604-3.154-2.406-6.108-2.406
	c-3.211,0-5.49,1.06-6.839,3.178c-1.319,2.091-1.978,5.742-1.978,10.955v20.191h-9.722V127.203z"/>
<polygon fill="#FFFFFF" points="290.434,136.236 290.434,169.097 280.756,169.097 280.756,136.236 276.627,136.236 276.627,127.203 
	280.756,127.203 280.756,111.848 290.434,111.848 290.434,127.203 297.961,127.203 297.961,136.236 "/>
<path fill="#EF363D" d="M314.76,162.459c0,3.518-2.852,6.367-6.367,6.367c-3.517,0-6.368-2.85-6.368-6.367
	c0-3.517,2.852-6.367,6.368-6.367C311.909,156.092,314.76,158.942,314.76,162.459"/>
<g>
</g>
<g>
</g>
<g>
</g>
<g>
</g>
<g>
</g>
<g>
</g>
</svg>
