<?xml version="1.0" encoding="utf-8"?>
<!-- Generator: Adobe Illustrator 16.0.3, SVG Export Plug-In . SVG Version: 6.00 Build 0)  -->
<!DOCTYPE svg PUBLIC "-//W3C//DTD SVG 1.1//EN" "http://www.w3.org/Graphics/SVG/1.1/DTD/svg11.dtd">
<svg version="1.1" id="Layer_1" xmlns="http://www.w3.org/2000/svg" xmlns:xlink="http://www.w3.org/1999/xlink" x="0px" y="0px"
	 width="420.945px" height="297.64px" viewBox="0 0 420.945 297.64" enable-background="new 0 0 420.945 297.64"
	 xml:space="preserve">
<rect width="420.945" height="297.64"/>
<path fill="#FFFFFF" d="M121.242,192.893h-9.678v-64.69h9.678v4.559c3.813-3.813,8.143-5.72,12.989-5.72
	c5.764,0,10.509,2.122,14.237,6.365c3.785,4.216,5.678,9.535,5.678,15.958c0,6.28-1.878,11.513-5.635,15.699
	c-3.728,4.158-8.43,6.237-14.108,6.237c-4.903,0-9.29-1.964-13.161-5.893V192.893z M144.253,149.408c0-4.014-1.09-7.283-3.269-9.807
	c-2.208-2.552-4.989-3.828-8.344-3.828c-3.556,0-6.438,1.233-8.646,3.699c-2.208,2.466-3.312,5.706-3.312,9.721
	c0,3.928,1.104,7.169,3.312,9.721c2.179,2.494,5.047,3.742,8.603,3.742c3.355,0,6.122-1.262,8.301-3.785
	C143.135,156.347,144.253,153.193,144.253,149.408"/>
<path fill="#FFFFFF" d="M161.611,148.849c0-6.05,2.165-11.198,6.495-15.441c4.329-4.244,9.606-6.366,15.829-6.366
	c6.251,0,11.555,2.136,15.914,6.409c4.301,4.272,6.452,9.52,6.452,15.742c0,6.28-2.166,11.542-6.495,15.785
	c-4.359,4.216-9.706,6.323-16.044,6.323c-6.279,0-11.542-2.15-15.785-6.452C163.733,160.606,161.611,155.272,161.611,148.849
	 M171.504,149.021c0,4.186,1.118,7.498,3.355,9.936c2.294,2.466,5.319,3.699,9.076,3.699c3.785,0,6.81-1.219,9.075-3.656
	c2.265-2.438,3.398-5.692,3.398-9.764c0-4.072-1.133-7.326-3.398-9.764c-2.295-2.466-5.319-3.699-9.075-3.699
	c-3.7,0-6.696,1.233-8.99,3.699C172.65,141.938,171.504,145.121,171.504,149.021"/>
<path fill="#FFFFFF" d="M212.873,113.23c0-1.692,0.617-3.154,1.85-4.387c1.232-1.233,2.709-1.85,4.43-1.85
	c1.748,0,3.24,0.617,4.473,1.85c1.233,1.204,1.85,2.681,1.85,4.43s-0.617,3.24-1.85,4.473c-1.204,1.233-2.682,1.85-4.43,1.85
	c-1.749,0-3.241-0.617-4.473-1.85C213.49,116.513,212.873,115.008,212.873,113.23 M224.013,170.097h-9.678v-41.894h9.678V170.097z"
	/>
<path fill="#FFFFFF" d="M236.712,128.203h9.721v3.871c3.383-3.355,7.197-5.032,11.441-5.032c4.875,0,8.674,1.534,11.398,4.602
	c2.351,2.609,3.527,6.868,3.527,12.775v25.678h-9.721v-23.369c0-4.124-0.573-6.974-1.72-8.549c-1.118-1.604-3.154-2.406-6.108-2.406
	c-3.211,0-5.491,1.06-6.839,3.178c-1.319,2.091-1.978,5.742-1.978,10.955v20.191h-9.721V128.203z"/>
<polygon fill="#FFFFFF" points="295.435,137.236 295.435,170.097 285.757,170.097 285.757,137.236 281.628,137.236 281.628,128.203 
	285.757,128.203 285.757,112.848 295.435,112.848 295.435,128.203 302.962,128.203 302.962,137.236 "/>
<path fill="#EF363D" d="M319.761,163.459c0,3.517-2.851,6.367-6.367,6.367c-3.517,0-6.368-2.85-6.368-6.367
	c0-3.517,2.851-6.367,6.368-6.367C316.91,157.092,319.761,159.942,319.761,163.459"/>
<g>
</g>
<g>
</g>
<g>
</g>
<g>
</g>
<g>
</g>
<g>
</g>
</svg>
